<svg height="32" width="32" xmlns="http://www.w3.org/2000/svg"><g><path d="m16 2a3 3 0 0 1 3 3v22a3 3 0 0 1 -3 3h-11a3 3 0 0 1 -3-3v-22a3 3 0 0 1 3-3zm0 2h-11a1 1 0 0 0 -1 1v22c0 .6.4 1 1 1h11c.6 0 1-.4 1-1v-22c0-.6-.4-1-1-1z"/><path d="m5 25h2v2h-2zm0-19h2v2h-2zm3 19h2v2h-2zm0-19h2v2h-2zm3 19h2v2h-2zm0-19h2v2h-2zm3 19h2v2h-2zm0-19h2v2h-2zm-9 3h2v2h-2zm0 3h2v2h-2zm3-3h2v2h-2zm3 0h2v2h-2zm3 0h2v2h-2zm-8-5h9-.4c-.3 0-.5.2-.5.5s-.3.5-.5.5h-6.1a.5.5 0 0 1 -.5-.5c0-.3-.2-.5-.5-.5zm24 1v2h-9v-2zm-2 9v1h-7v-1zm0 8v1h-7v-1zm-1-10v1h-6v-1zm0 6v1h-6v-1zm2-8v1h-8v-1zm0 10v1h-8v-1zm-1 6v1h-5v-1z"/></g></svg>